<?xml version="1.0" encoding="utf-8"?>
<!-- Generator: Adobe Illustrator 24.0.2, SVG Export Plug-In . SVG Version: 6.00 Build 0)  -->
<svg version="1.1" id="Capa_1" xmlns="http://www.w3.org/2000/svg" xmlns:xlink="http://www.w3.org/1999/xlink" x="0px" y="0px"
	 viewBox="0 0 850.39 850.39" style="enable-background:new 0 0 850.39 850.39;" xml:space="preserve">
<style type="text/css">
	.st0{stroke:#000000;stroke-width:0.5;stroke-miterlimit:10;}
</style>
<g>
	<path class="st0" d="M251.8,447.34c-1.61-1.61-2.38-3.56-2.38-5.94c0-3.35,0.98-6.71,2.94-10.06c2.03-3.42,4.61-6.71,7.83-9.99
		c3.21-3.21,6.71-6.29,10.41-9.16c2.59-18.45,6.01-37.6,10.27-57.45c0.35-1.19,0.98-1.75,2.03-1.75c0.49,0,0.98,0.21,1.33,0.56
		c0.35,0.35,0.56,0.84,0.56,1.4c0,0.28-0.07,0.7-0.21,1.26c-1.54,4.4-3.35,11.74-5.52,22.09c-2.1,10.34-3.98,20.9-5.52,31.73
		l2.31-1.61c0.63,0,0.91,0.28,0.91,0.77c0,0.07,0,0.14,0,0.21c0,0.07-0.07,0.14-0.21,0.28l-3.28,2.38
		c-1.33,8.88-1.96,16.07-1.96,21.6c0,0.49-0.35,0.77-0.98,0.77c-0.91,0-1.4-0.42-1.4-1.33c0-5.17,0.49-11.46,1.4-18.87
		c-1.75,1.4-3.98,3.35-6.71,5.94c-8.46,7.9-12.72,14.96-12.72,21.25c0,2.03,0.63,3.7,1.96,4.96c1.33,1.33,3.28,1.96,5.87,1.96
		c10.9,0,21.81-4.4,32.71-13.28c7.13-5.73,13.49-12.44,19.22-20.06c5.8-7.69,10.34-15.8,13.77-24.46c3.42-8.6,5.17-17.19,5.17-25.72
		c0-4.54-0.84-8.6-2.52-12.02c-1.75-3.49-4.19-6.15-7.55-8.11c-3.28-1.96-7.41-2.94-12.3-2.94c-6.57,0-12.65,0.84-18.38,2.59
		c-5.66,1.75-10.9,4.05-15.59,6.92c-4.75,2.87-9.02,6.08-12.72,9.57c-5.38,4.96-9.51,9.78-12.51,14.54
		c-3.01,4.75-4.47,9.3-4.47,13.77c0,0.84-0.42,1.26-1.26,1.33c-0.91,0-1.4-0.42-1.4-1.33c0-3.15,1.61-7.41,4.89-12.86
		c3.28-5.38,7.9-10.9,13.84-16.56c5.8-5.38,12.79-9.92,20.83-13.77c8.11-3.77,17.05-5.66,26.77-5.66c5.03,0,9.51,0.91,13.35,2.73
		c3.84,1.75,6.85,4.47,9.02,8.11c2.17,3.63,3.28,8.18,3.28,13.7c0,8.53-1.68,17.19-5.1,25.93c-3.35,8.74-7.97,16.98-13.7,24.81
		c-5.8,7.83-12.37,14.68-19.78,20.62c-11.32,9.02-23.2,13.56-35.57,13.56C255.71,449.72,253.41,448.95,251.8,447.34z"/>
	<path class="st0" d="M385.85,404.29c0.14,0.07,0.21,0.14,0.28,0.28c0.07,0.07,0.07,0.21,0.07,0.42l-0.35,0.42
		c-13,7.2-23.69,10.83-32.08,10.83c-2.94,0-5.31-0.56-6.99-1.75c-1.68-1.12-2.66-2.73-2.94-4.82c-0.28,0.28-1.05,0.98-2.38,2.24
		c-2.73,2.52-4.96,3.77-6.71,3.77c-2.52,0-3.84-1.47-3.98-4.4c0-1.54,0.56-3.21,1.68-5.1c1.12-1.89,2.59-3.49,4.26-4.89
		c1.75-1.4,3.49-2.1,5.38-2.1c1.54,0,2.59,0.42,3.21,1.33c0.63,0.91,0.98,1.96,0.98,3.08c0,0.35-0.07,0.49-0.28,0.56
		c-0.21,0.07-0.42,0.07-0.56,0.07c-0.07,0-0.21,0-0.28-0.07c-0.14,0-0.21-0.07-0.35-0.21c-0.07-0.07-0.14-0.21-0.14-0.42
		c0-1.26-0.77-1.89-2.31-1.96c-1.19,0-2.52,0.63-3.91,1.89c-1.33,1.26-2.52,2.73-3.42,4.33c-0.91,1.68-1.4,3.01-1.4,4.12
		c0,1.4,0.42,2.17,1.26,2.31c1.05,0,2.31-0.63,3.91-1.89c1.54-1.26,3.28-2.87,5.17-4.89c0.21-0.42,0.63-0.63,1.19-0.63
		c1.05,0,1.54,0.42,1.54,1.33c0,4.4,2.38,6.57,7.13,6.57c7.97,0,18.38-3.49,31.24-10.41l0.14-0.14
		C385.5,404.15,385.71,404.22,385.85,404.29z"/>
	<path class="st0" d="M380.05,416.45c0-1.12,0.49-3.08,1.4-5.87s1.82-5.24,2.87-7.34c0.49-0.84,1.19-1.26,2.03-1.4
		c1.33,0,1.96,0.49,1.96,1.4v0.07c0,0.21-0.07,0.56-0.28,0.84c-2.03,3.7-3.63,6.99-4.61,9.78c2.03-2.1,4.47-4.26,7.34-6.5
		c2.87-2.17,5.17-3.28,6.85-3.28c1.54,0,2.8,0.28,3.7,0.84c0.84,0.56,1.54,1.26,2.1,2.17c0.49,0.84,0.91,1.68,1.33,2.59
		c0.42,1.12,0.91,2.1,1.54,2.94c0.63,0.84,1.61,1.26,2.94,1.26c4.26,0,11.25-1.61,20.83-4.82l12.72-4.96h0.07l0.14-0.14
		c0.35,0.14,0.56,0.28,0.63,0.42s0.14,0.28,0.14,0.49c0,0.07,0,0.14,0,0.21c0,0.07-0.07,0.21-0.21,0.35l-3.84,1.54
		c-14.05,5.59-24.18,8.39-30.47,8.39c-3.77,0-6.22-0.77-7.41-2.38c-1.12-1.68-1.89-3.28-2.24-4.82c-0.14-0.7-0.42-1.33-0.7-1.89
		c-0.14-0.49-0.56-0.7-1.26-0.7c-1.61,0-3.91,1.19-6.85,3.63s-5.73,5.17-8.46,8.04l-0.07,0.14c-0.07,0-0.21,0.14-0.35,0.21
		c-0.14,0.14-0.35,0.21-0.63,0.21C380.47,417.85,380.05,417.36,380.05,416.45z"/>
	<path class="st0" d="M440.01,410.44c0-2.87,0.91-5.52,2.8-7.97c0.28-0.49,0.77-0.77,1.54-0.77c0.56,0,0.98,0.14,1.33,0.35
		c0.35,0.21,0.56,0.49,0.56,0.84l-0.07,0.35c-1.54,2.38-2.31,4.82-2.31,7.41c0,1.33,0.42,2.52,1.19,3.49
		c0.84,1.05,2.1,1.61,3.77,1.75c2.87,0,6.22-0.56,10.2-1.75c3.91-1.19,7.76-2.59,11.53-4.12s6.92-2.87,9.51-4.12l3.98-1.82
		c0.56,0,0.84,0.21,0.84,0.7c0,0.14,0,0.28-0.07,0.42c-0.07,0.14-0.21,0.21-0.28,0.21c-0.14,0.14-1.54,0.77-4.05,1.89
		c-2.52,1.19-5.66,2.59-9.37,4.12c-9.64,3.91-17.05,5.87-22.22,5.87C443.09,417.29,440.08,414.98,440.01,410.44z M444.77,396.6
		c0-2.24,0.77-3.49,2.24-3.84c0.7,0,1.33,0.28,1.82,0.91c0.49,0.56,0.77,1.19,0.77,1.82c0,0.84-0.35,1.68-1.05,2.45
		c-0.7,0.77-1.4,1.19-2.17,1.19C445.32,399.11,444.77,398.28,444.77,396.6z"/>
	<path class="st0" d="M483.83,446.01c0.35-10.48,3.49-25.79,9.44-45.92c-0.98-2.59-1.47-4.19-1.47-4.82l0.14-0.91
		c0.14-0.49,0.63-0.91,1.47-1.33l2.24-1.12c5.1-17.12,9.3-30.61,12.51-40.54c1.82-5.38,2.94-9.09,3.42-10.9
		c0.21-0.91,0.77-1.33,1.68-1.33c0.42,0,0.77,0.14,1.12,0.42c0.35,0.28,0.56,0.63,0.56,1.19c0,0.35-0.07,0.77-0.21,1.19
		c-2.52,5.73-7.55,20.2-15.17,43.54c2.1-5.45,4.96-11.67,8.53-18.66c9.37-18.52,18.52-27.82,27.54-27.82c4.33,0,6.78,2.45,7.34,7.41
		c-0.14,6.29-2.73,12.51-7.83,18.66c-5.38,6.22-11.46,11.81-18.17,16.63c-6.78,4.89-13.07,8.88-18.87,11.88
		c-0.84,1.96-1.47,4.12-2.1,6.36c2.17,6.01,5.24,11.81,9.16,17.4c9.09,12.79,20.41,19.22,33.97,19.22c0.49,0,0.77,0.21,0.77,0.7
		c0,0.35-0.28,0.63-0.77,0.7c-5.1,0-9.85-0.77-14.12-2.38c-4.26-1.61-8.11-3.77-11.6-6.57c-3.49-2.73-6.57-5.87-9.3-9.37
		c-4.05-5.24-7.13-10.41-9.23-15.59c-6.08,20.83-9.09,34.81-9.09,42.07c0,0.56-0.35,0.84-0.98,0.91
		C484.18,447.06,483.83,446.71,483.83,446.01z M494.67,395.27l-0.21,0.07l0.07,0.28L494.67,395.27z M525.84,370.74
		c9.16-8.18,13.98-16.42,14.61-24.67c-0.07-1.68-0.56-3.08-1.47-4.12s-2.03-1.54-3.35-1.54c-4.75,0-9.44,2.8-13.98,8.39
		c-4.61,5.31-8.67,11.53-12.3,18.66c-4.89,9.92-8.25,17.4-9.99,22.43C507.74,385.35,516.54,378.99,525.84,370.74z"/>
	<path class="st0" d="M538.42,412.54c-0.91-0.7-1.4-1.75-1.4-3.21c0-1.54,0.49-3.15,1.54-4.68c0.98-1.61,2.17-2.59,3.35-3.01
		c1.05,0,1.61,0.49,1.61,1.47c0,0.28-0.07,0.56-0.28,0.77c-2.45,2.03-3.7,3.98-3.7,5.94c0,0.56,0.14,1.12,0.49,1.61
		c0.28,0.49,0.84,0.7,1.54,0.7c1.19,0,2.1-0.35,2.8-0.98c0.7-0.63,1.4-1.4,2.03-2.45c-1.33-0.63-2.03-1.82-2.03-3.56
		c0-1.54,0.77-2.38,2.38-2.52c1.47,0,2.17,0.91,2.17,2.66c0,0.77-0.21,1.61-0.56,2.45c1.4,0.63,2.94,0.98,4.75,0.98
		c7.13-0.21,13.91-0.84,20.34-1.89c6.43-1.05,10.83-1.96,13.14-2.73c0.63,0,0.91,0.28,0.91,0.77v0.07c0,0.42-1.89,1.05-5.59,1.82
		c-3.7,0.77-8.11,1.54-13.35,2.24c-5.17,0.7-10.34,1.12-15.45,1.19c-1.89,0-3.7-0.28-5.38-0.91c-1.47,2.87-3.49,4.33-6.15,4.33
		C540.37,413.58,539.33,413.23,538.42,412.54z M547.43,405.34c0-0.91-0.28-1.33-0.77-1.33c-0.21,0-0.28,0.35-0.35,1.12
		c0,0.84,0.28,1.47,0.84,1.89C547.36,406.38,547.43,405.83,547.43,405.34z"/>
	<path class="st0" d="M578.18,419.31l0.07-0.28c2.38-3.49,5.03-6.5,7.9-9.23c-0.63-1.05-1.05-2.03-1.26-2.94
		c-0.14-0.63-0.21-1.26-0.21-1.82v-0.42c-0.07-0.28-0.07-0.56-0.07-0.84c0-0.84,0.28-1.4,0.77-1.75c0.56-0.35,1.05-0.56,1.61-0.56
		c0.84,0,1.4,0.28,1.61,0.77c0.21,0.56,0.42,1.26,0.49,2.17c0.07,0.84,0.21,1.61,0.35,2.38l5.38-4.75c0,0,0.07-0.07,0.14-0.14
		c0.07-0.07,0.14-0.07,0.28-0.07c0.49,0,0.77,0.21,0.77,0.7c0,0.14-0.07,0.35-0.14,0.49c-0.14,0.07-0.28,0.28-0.49,0.49
		c-0.21,0.14-0.56,0.42-0.98,0.84c-0.84,0.7-2.31,2.03-4.47,3.98c1.19,3.49,3.49,5.38,6.99,5.59c3.7,0,7.62-0.49,11.81-1.47
		c4.19-0.98,8.46-2.17,12.72-3.63c4.33-1.47,8.53-3.01,12.58-4.54l0.49-0.14c0.14,0,0.28,0,0.42,0.07c0.14,0.07,0.21,0.28,0.21,0.56
		c0,0.07,0,0.21,0,0.28c0,0.14-0.07,0.28-0.28,0.42c-0.14,0.07-1.4,0.56-3.91,1.47c-2.52,0.91-5.73,2.1-9.71,3.49
		c-9.09,3.28-17.12,4.96-24.25,4.96c-4.75,0-8.11-1.4-10.06-4.26c-2.73,2.45-5.17,5.31-7.41,8.67c-0.07,0.07-0.14,0.14-0.21,0.21
		s-0.14,0.07-0.35,0.07C578.46,420.08,578.18,419.8,578.18,419.31z"/>
</g>
</svg>
