<svg width="396" height="112" viewBox="0 0 396 112" fill="none" xmlns="http://www.w3.org/2000/svg">
<path d="M11.9 109.34C10.29 107.73 9.52 105.78 9.52 103.4C9.52 100.05 10.5 96.69 12.46 93.34C14.49 89.92 17.07 86.63 20.29 83.35C23.5 80.14 27 77.06 30.7 74.19C33.29 55.74 36.71 36.59 40.97 16.74C41.32 15.55 41.95 14.99 43 14.99C43.49 14.99 43.98 15.2 44.33 15.55C44.68 15.9 44.89 16.39 44.89 16.95C44.89 17.23 44.82 17.65 44.68 18.21C43.14 22.61 41.33 29.95 39.16 40.3C37.06 50.64 35.18 61.2 33.64 72.03L35.95 70.42C36.58 70.42 36.86 70.7 36.86 71.19C36.86 71.26 36.86 71.33 36.86 71.4C36.86 71.47 36.79 71.54 36.65 71.68L33.37 74.06C32.04 82.94 31.41 90.13 31.41 95.66C31.41 96.15 31.06 96.43 30.43 96.43C29.52 96.43 29.03 96.01 29.03 95.1C29.03 89.93 29.52 83.64 30.43 76.23C28.68 77.63 26.45 79.58 23.72 82.17C15.26 90.07 11 97.13 11 103.42C11 105.45 11.63 107.12 12.96 108.38C14.29 109.71 16.24 110.34 18.83 110.34C29.73 110.34 40.64 105.94 51.54 97.06C58.67 91.33 65.03 84.62 70.76 77C76.56 69.31 81.1 61.2 84.53 52.54C87.95 43.94 89.7 35.35 89.7 26.82C89.7 22.28 88.86 18.22 87.18 14.8C85.43 11.31 82.99 8.65003 79.63 6.69003C76.35 4.73003 72.22 3.75003 67.33 3.75003C60.76 3.75003 54.68 4.59003 48.95 6.34003C43.29 8.09003 38.05 10.39 33.36 13.26C28.61 16.13 24.34 19.34 20.64 22.83C15.26 27.79 11.13 32.61 8.13 37.37C5.12 42.12 3.66 46.67 3.66 51.14C3.66 51.98 3.24001 52.4 2.40001 52.47C1.49001 52.47 1 52.05 1 51.14C1 47.99 2.61 43.73 5.89 38.28C9.17 32.9 13.79 27.38 19.73 21.72C25.53 16.34 32.52 11.8 40.56 7.95004C48.67 4.18004 57.61 2.29004 67.33 2.29004C72.36 2.29004 76.84 3.20002 80.68 5.02002C84.52 6.77002 87.53 9.49004 89.7 13.13C91.87 16.76 92.98 21.31 92.98 26.83C92.98 35.36 91.3 44.02 87.88 52.76C84.53 61.5 79.91 69.74 74.18 77.57C68.38 85.4 61.81 92.25 54.4 98.19C43.08 107.21 31.2 111.75 18.83 111.75C15.81 111.72 13.51 110.95 11.9 109.34Z" fill="black" stroke="black" stroke-width="0.5" stroke-miterlimit="10"/>
<path d="M145.95 66.2899C146.09 66.3599 146.16 66.4299 146.23 66.5699C146.3 66.6399 146.3 66.7799 146.3 66.9899L145.95 67.4099C132.95 74.6099 122.26 78.2399 113.87 78.2399C110.93 78.2399 108.56 77.6799 106.88 76.4899C105.2 75.3699 104.22 73.76 103.94 71.67C103.66 71.95 102.89 72.6499 101.56 73.9099C98.8301 76.4299 96.6001 77.6799 94.8501 77.6799C92.3301 77.6799 91.0101 76.2099 90.8701 73.2799C90.8701 71.7399 91.4301 70.0699 92.5501 68.1799C93.6701 66.2899 95.1401 64.6899 96.8101 63.2899C98.5601 61.8899 100.3 61.1899 102.19 61.1899C103.73 61.1899 104.78 61.6099 105.4 62.5199C106.03 63.4299 106.38 64.4799 106.38 65.5999C106.38 65.9499 106.31 66.0899 106.1 66.1599C105.89 66.2299 105.68 66.2299 105.54 66.2299C105.47 66.2299 105.33 66.2299 105.26 66.1599C105.12 66.1599 105.05 66.09 104.91 65.95C104.84 65.88 104.77 65.7399 104.77 65.5299C104.77 64.2699 104 63.6399 102.46 63.5699C101.27 63.5699 99.9401 64.1999 98.5501 65.4599C97.2201 66.7199 96.0301 68.1899 95.1301 69.7899C94.2201 71.4699 93.7301 72.7999 93.7301 73.9099C93.7301 75.3099 94.1501 76.0799 94.9901 76.2199C96.0401 76.2199 97.3001 75.5899 98.9001 74.3299C100.44 73.0699 102.18 71.4599 104.07 69.4399C104.28 69.0199 104.7 68.8099 105.26 68.8099C106.31 68.8099 106.8 69.23 106.8 70.14C106.8 74.54 109.18 76.7099 113.93 76.7099C121.9 76.7099 132.31 73.2199 145.17 66.2999L145.31 66.1599C145.6 66.1499 145.81 66.2199 145.95 66.2899Z" fill="black" stroke="black" stroke-width="0.5" stroke-miterlimit="10"/>
<path d="M140.15 78.45C140.15 77.33 140.64 75.37 141.55 72.58C142.46 69.79 143.37 67.34 144.42 65.24C144.91 64.4 145.61 63.98 146.45 63.84C147.78 63.84 148.41 64.33 148.41 65.24V65.31C148.41 65.52 148.34 65.87 148.13 66.15C146.1 69.85 144.5 73.14 143.52 75.93C145.55 73.83 147.99 71.67 150.86 69.43C153.73 67.26 156.03 66.15 157.71 66.15C159.25 66.15 160.51 66.43 161.41 66.99C162.25 67.55 162.95 68.25 163.51 69.16C164 70 164.42 70.84 164.84 71.75C165.26 72.87 165.75 73.85 166.38 74.69C167.01 75.53 167.99 75.95 169.32 75.95C173.58 75.95 180.57 74.34 190.15 71.13L202.87 66.17H202.94L203.08 66.03C203.43 66.17 203.64 66.31 203.71 66.45C203.78 66.59 203.85 66.73 203.85 66.94C203.85 67.01 203.85 67.08 203.85 67.15C203.85 67.22 203.78 67.36 203.64 67.5L199.8 69.04C185.75 74.63 175.62 77.43 169.33 77.43C165.56 77.43 163.11 76.66 161.92 75.05C160.8 73.37 160.03 71.77 159.68 70.23C159.54 69.53 159.26 68.9 158.98 68.34C158.84 67.85 158.42 67.64 157.72 67.64C156.11 67.64 153.81 68.83 150.87 71.27C147.93 73.71 145.14 76.44 142.41 79.31L142.34 79.45C142.27 79.45 142.13 79.59 141.99 79.66C141.85 79.8 141.64 79.87 141.36 79.87C140.57 79.85 140.15 79.36 140.15 78.45Z" fill="black" stroke="black" stroke-width="0.5" stroke-miterlimit="10"/>
<path d="M200.11 72.44C200.11 69.57 201.02 66.92 202.91 64.47C203.19 63.98 203.68 63.7 204.45 63.7C205.01 63.7 205.43 63.84 205.78 64.05C206.13 64.26 206.34 64.54 206.34 64.89L206.27 65.24C204.73 67.62 203.96 70.06 203.96 72.65C203.96 73.98 204.38 75.17 205.15 76.14C205.99 77.19 207.25 77.75 208.92 77.89C211.79 77.89 215.14 77.33 219.12 76.14C223.03 74.95 226.88 73.55 230.65 72.02C234.42 70.49 237.57 69.15 240.16 67.9L244.14 66.08C244.7 66.08 244.98 66.29 244.98 66.78C244.98 66.92 244.98 67.06 244.91 67.2C244.84 67.34 244.7 67.41 244.63 67.41C244.49 67.55 243.09 68.18 240.58 69.3C238.06 70.49 234.92 71.89 231.21 73.42C221.57 77.33 214.16 79.29 208.99 79.29C203.19 79.29 200.18 76.98 200.11 72.44ZM204.87 58.6C204.87 56.36 205.64 55.11 207.11 54.76C207.81 54.76 208.44 55.04 208.93 55.67C209.42 56.23 209.7 56.86 209.7 57.49C209.7 58.33 209.35 59.17 208.65 59.94C207.95 60.71 207.25 61.13 206.48 61.13C205.42 61.11 204.87 60.28 204.87 58.6Z" fill="black" stroke="black" stroke-width="0.5" stroke-miterlimit="10"/>
<path d="M243.93 108.01C244.28 97.53 247.42 82.22 253.37 62.09C252.39 59.5 251.9 57.9 251.9 57.27L252.04 56.36C252.18 55.87 252.67 55.45 253.51 55.03L255.75 53.91C260.85 36.79 265.05 23.3 268.26 13.37C270.08 7.99 271.2 4.28 271.68 2.47C271.89 1.56 272.45 1.14001 273.36 1.14001C273.78 1.14001 274.13 1.28 274.48 1.56C274.83 1.84 275.04 2.19 275.04 2.75C275.04 3.1 274.97 3.52 274.83 3.94C272.31 9.67 267.28 24.14 259.66 47.48C261.76 42.03 264.62 35.81 268.19 28.82C277.56 10.3 286.71 1 295.73 1C300.06 1 302.51 3.45 303.07 8.41C302.93 14.7 300.34 20.92 295.24 27.07C289.86 33.29 283.78 38.88 277.07 43.7C270.29 48.59 264 52.58 258.2 55.58C257.36 57.54 256.73 59.7 256.1 61.94C258.27 67.95 261.34 73.75 265.26 79.34C274.35 92.13 285.67 98.56 299.23 98.56C299.72 98.56 300 98.77 300 99.26C300 99.61 299.72 99.89 299.23 99.96C294.13 99.96 289.38 99.19 285.11 97.58C280.85 95.97 277 93.81 273.51 91.01C270.02 88.28 266.94 85.14 264.21 81.64C260.16 76.4 257.08 71.23 254.98 66.05C248.9 86.88 245.89 100.86 245.89 108.12C245.89 108.68 245.54 108.96 244.91 109.03C244.28 109.06 243.93 108.71 243.93 108.01ZM254.77 57.27L254.56 57.34L254.63 57.62L254.77 57.27ZM285.94 32.74C295.1 24.56 299.92 16.32 300.55 8.07001C300.48 6.39001 299.99 4.99001 299.08 3.95001C298.17 2.91001 297.05 2.41 295.73 2.41C290.98 2.41 286.29 5.20999 281.75 10.8C277.14 16.11 273.08 22.33 269.45 29.46C264.56 39.38 261.2 46.86 259.46 51.89C267.84 47.35 276.64 40.99 285.94 32.74Z" fill="black" stroke="black" stroke-width="0.5" stroke-miterlimit="10"/>
<path d="M298.52 74.54C297.61 73.84 297.12 72.79 297.12 71.33C297.12 69.79 297.61 68.18 298.66 66.65C299.64 65.04 300.83 64.06 302.01 63.64C303.06 63.64 303.62 64.13 303.62 65.11C303.62 65.39 303.55 65.67 303.34 65.88C300.89 67.91 299.64 69.86 299.64 71.82C299.64 72.38 299.78 72.94 300.13 73.43C300.41 73.92 300.97 74.13 301.67 74.13C302.86 74.13 303.77 73.78 304.47 73.15C305.17 72.52 305.87 71.75 306.5 70.7C305.17 70.07 304.47 68.88 304.47 67.14C304.47 65.6 305.24 64.76 306.85 64.62C308.32 64.62 309.02 65.53 309.02 67.28C309.02 68.05 308.81 68.89 308.46 69.73C309.86 70.36 311.4 70.71 313.21 70.71C320.34 70.5 327.12 69.87 333.55 68.82C339.98 67.77 344.38 66.86 346.69 66.09C347.32 66.09 347.6 66.37 347.6 66.86V66.93C347.6 67.35 345.71 67.98 342.01 68.75C338.31 69.52 333.9 70.29 328.66 70.99C323.49 71.69 318.32 72.11 313.21 72.18C311.32 72.18 309.51 71.9 307.83 71.27C306.36 74.14 304.34 75.6 301.68 75.6C300.47 75.58 299.43 75.23 298.52 74.54ZM307.53 67.34C307.53 66.43 307.25 66.01 306.76 66.01C306.55 66.01 306.48 66.36 306.41 67.13C306.41 67.97 306.69 68.6 307.25 69.02C307.46 68.38 307.53 67.83 307.53 67.34Z" fill="black" stroke="black" stroke-width="0.5" stroke-miterlimit="10"/>
<path d="M338.28 81.31L338.35 81.03C340.73 77.54 343.38 74.53 346.25 71.8C345.62 70.75 345.2 69.77 344.99 68.86C344.85 68.23 344.78 67.6 344.78 67.04V66.62C344.71 66.34 344.71 66.06 344.71 65.78C344.71 64.94 344.99 64.38 345.48 64.03C346.04 63.68 346.53 63.47 347.09 63.47C347.93 63.47 348.49 63.75 348.7 64.24C348.91 64.8 349.12 65.5 349.19 66.41C349.26 67.25 349.4 68.02 349.54 68.79L354.92 64.04C354.92 64.04 354.99 63.97 355.06 63.9C355.13 63.83 355.2 63.83 355.34 63.83C355.83 63.83 356.11 64.04 356.11 64.53C356.11 64.67 356.04 64.88 355.97 65.02C355.83 65.09 355.69 65.3 355.48 65.51C355.27 65.65 354.92 65.93 354.5 66.35C353.66 67.05 352.19 68.38 350.03 70.33C351.22 73.82 353.52 75.71 357.02 75.92C360.72 75.92 364.64 75.43 368.83 74.45C373.02 73.47 377.29 72.28 381.55 70.82C385.88 69.35 390.08 67.81 394.13 66.28L394.62 66.14C394.76 66.14 394.9 66.14 395.04 66.21C395.18 66.28 395.25 66.49 395.25 66.77C395.25 66.84 395.25 66.98 395.25 67.05C395.25 67.19 395.18 67.33 394.97 67.47C394.83 67.54 393.57 68.03 391.06 68.94C388.54 69.85 385.33 71.04 381.35 72.43C372.26 75.71 364.23 77.39 357.1 77.39C352.35 77.39 348.99 75.99 347.04 73.13C344.31 75.58 341.87 78.44 339.63 81.8C339.56 81.87 339.49 81.94 339.42 82.01C339.35 82.08 339.28 82.08 339.07 82.08C338.56 82.08 338.28 81.8 338.28 81.31Z" fill="black" stroke="black" stroke-width="0.5" stroke-miterlimit="10"/>
</svg>
