<svg width="177" height="56" viewBox="0 0 177 56" fill="none" xmlns="http://www.w3.org/2000/svg">
<path d="M166.51 42.1599C163.174 42.1599 160.628 39.073 160.585 33.3339V32.7687C156.941 33.5078 156.898 37.2034 157.336 39.3339C157.951 42.0295 153.562 43.7686 152.069 40.6817C150.621 37.6817 152.772 30.16 160.409 29.2904C160.277 26.16 160.058 22.5513 160.102 20.8557H165.896C165.896 22.8122 166.027 25.4209 166.203 27.7687C167.168 26.9861 168.924 25.2469 168.573 23.247C168.046 20.5078 172.348 18.8122 173.84 21.8991C175.245 24.8122 171.689 29.3339 166.378 30.7252L166.466 32.3774C166.598 36.16 167.476 37.1165 168.617 37.1165C169.758 37.1165 172.918 35.2469 174.718 31.2469C175.376 31.2469 176.693 31.8991 177 32.3774C175.201 37.1599 170.68 42.1599 166.51 42.1599Z" fill="#4C9389"/>
<path d="M141.106 42.203C135.225 42.6378 132.811 36.203 135.62 29.1161C137.419 24.5074 141.194 20.6814 145.452 19.7248C149.314 17.6814 154.889 21.29 153.001 29.3335C152.562 31.2031 151.904 32.8987 151.114 34.4204C152.782 34.5074 154.45 33.5944 155.459 31.2465C156.074 31.2465 157.346 31.8552 157.742 32.377C155.986 36.203 152.562 37.6813 149.402 37.1161C147.032 40.1596 144.003 41.9856 141.106 42.203ZM139.746 30.9422C138.736 35.203 140.492 36.9856 142.686 37.0291C143.52 37.0726 144.618 36.5074 145.671 35.4639C143.389 33.6378 141.809 30.5074 142.072 26.2466C140.931 27.4639 140.141 29.29 139.746 30.9422ZM145.627 25.377C144.881 28.4205 145.934 31.1596 147.646 32.8117C147.91 32.3335 148.173 31.8118 148.392 31.29C151.684 22.9857 146.988 19.9422 145.627 25.377Z" fill="#4C9389"/>
<path d="M146.725 44.2465C139.132 57.4204 118.59 55.9856 121.751 34.6813C122.76 27.9422 120.653 26.8987 114.64 31.0292C112.314 37.377 111.085 43.5509 111.524 47.8552H101.955C102.745 37.5944 110.778 19.9422 121.882 8.59445C121.882 8.59445 126.008 8.59445 126.93 10.464C122.848 14.7249 119.249 20.4205 116.571 26.3335C119.907 24.9422 122.365 24.377 124.165 24.8118C128.949 22.6379 130.485 18.6814 130.573 14.4205C130.661 7.07272 123.155 3.63795 114.377 6.24664C108.056 8.15967 106.476 14.2466 110.778 14.2901C107.486 19.5509 99.9361 18.9422 99.3216 13.7249C98.9266 10.2466 101.911 5.02925 111.611 2.68143C126.491 -1.01421 140.756 3.68143 138.781 15.7249C137.859 21.2031 132.548 25.2466 127.325 27.3335C128.159 28.8987 128.642 31.1161 128.949 34.1161C130.002 45.8987 138.386 48.8987 146.725 44.2465Z" fill="#4C9389"/>
<path d="M88.2944 42.7395C84.1246 42.7395 82.2373 39.0004 83.8613 34.8265C84.7391 32.5221 87.9433 25.2613 89.6551 21.4352H95.4489C93.7371 25.5656 90.1818 34.4786 89.7428 35.4351C89.3039 36.5221 89.2161 37.696 90.4012 37.696C91.5863 37.696 93.1665 35.8265 95.0099 31.8265C95.6244 31.8265 96.9412 32.5656 97.2923 32.9569C95.4928 37.7395 92.5081 42.7395 88.2944 42.7395ZM89.7428 16.5656C89.7428 14.9135 91.4547 13.6091 93.6054 13.6091C95.7122 13.6091 97.424 14.9135 97.424 16.5656C97.424 18.1743 95.7122 19.5222 93.6054 19.5222C91.4547 19.5222 89.7428 18.1743 89.7428 16.5656Z" fill="#4C9389"/>
<path d="M78.3766 42.7392C74.2068 42.7392 72.2755 39.0001 73.8996 34.8262C75.0846 31.8262 76.3575 28.9566 76.8403 27.8697C77.2793 26.7827 77.1915 25.7392 76.0942 25.7392C75.0408 25.7392 73.0656 27.0436 70.9588 31.6957L66.7451 42.174H60.644L69.1153 21.4349H75.0847L74.2507 23.4784C75.8308 21.6523 77.4548 20.6088 79.2983 20.6088C82.5903 20.6088 84.7849 23.6523 82.8097 28.261C81.5368 31.261 80.264 34.3914 79.825 35.4349C79.3861 36.5218 79.2983 37.6957 80.4395 37.6957C81.6246 37.6957 83.2925 35.8262 85.0921 31.8262C85.7505 31.8262 87.3745 32.6523 87.3745 32.9131C85.531 37.6957 82.5464 42.7392 78.3766 42.7392Z" fill="#4C9389"/>
<path d="M46.8037 42.7826C43.4678 42.4782 41.1415 37.0869 44.2579 29.6957C47.4182 22.3479 51.1051 20.6522 54.5287 20.6522C56.3283 20.6522 57.9523 21.4783 58.7863 23.087L59.4886 21.4348H65.3263C63.6145 25.5652 60.0153 34.5217 59.6203 35.4783C59.1813 36.5652 59.0935 37.7391 60.2786 37.7391C61.4198 37.7391 63.0878 35.8261 64.8873 31.8261C65.5457 31.8261 66.8186 32.5652 67.1698 32.9565C65.3702 37.7391 62.3416 42.7826 58.1718 42.7826C55.8016 42.7826 54.1337 41.5652 53.4753 39.6956C51.3685 41.6522 49.6128 43 46.8037 42.7826ZM50.0078 30.6522C48.1643 35 48.7788 37.2609 50.1395 37.5217C51.149 37.7826 52.1146 37.3913 53.2559 36.3913C53.3436 35.8696 53.4753 35.3478 53.6948 34.8261C54.1337 33.7391 55.1432 31.4348 56.1966 28.9565C57.2501 26.2609 56.7234 24.4348 55.2749 24.4348C53.7387 24.4348 51.8074 26.3044 50.0078 30.6522Z" fill="#4C9389"/>
<path d="M9.59097 56C7.39635 53.6956 5.42119 48.3478 5.42119 45.5652C20.2568 46.3913 39.9645 31.8696 37.7699 17.2175C37.1554 13.1306 34.1268 9.82622 30.0887 7.91318C26.4018 14.261 18.1939 32.5653 18.4133 40.0435C16.4382 40.2174 11.215 39.6957 9.85433 38.8261C11.8295 31.5653 19.6862 13.8697 24.5144 6.30449C22.1003 6.00015 19.5984 6.17406 17.2283 6.86971C10.9077 8.73927 9.32762 14.8262 13.6291 14.8697C10.3371 20.174 2.78764 19.5653 2.17315 14.3479C1.77812 10.8262 4.7628 5.65232 14.463 3.26103C29.3426 -0.391135 41.5008 6.56536 43.2126 19.0001C45.6705 36.6522 26.0506 53.7391 9.59097 56Z" fill="#4C9389"/>
<path d="M165.047 40.7105C161.711 40.7105 159.165 37.6236 159.121 31.8845V31.3193C155.478 32.0584 155.434 35.754 155.873 37.8845C156.488 40.5801 152.098 42.3192 150.606 39.2323C149.158 36.2323 151.308 28.7106 158.946 27.841C158.814 24.7106 158.594 21.1019 158.638 19.4063H164.432C164.432 21.3628 164.564 23.9715 164.739 26.3193C165.705 25.5367 167.461 23.7975 167.11 21.7975C166.583 19.0584 170.884 17.3628 172.377 20.4497C173.781 23.3628 170.226 27.8845 164.915 29.2758L165.003 30.928C165.134 34.7106 166.012 35.6671 167.153 35.6671C168.295 35.6671 171.455 33.7975 173.255 29.7975C173.913 29.7975 175.23 30.4497 175.537 30.928C173.737 35.7105 169.216 40.7105 165.047 40.7105Z" fill="#E8CD48"/>
<path d="M139.643 40.7537C133.761 41.1885 131.347 34.7537 134.156 27.6668C135.956 23.0581 139.731 19.232 143.988 18.2755C147.851 16.232 153.425 19.8407 151.538 27.8842C151.099 29.7537 150.44 31.4494 149.65 32.9711C151.318 33.0581 152.986 32.145 153.996 29.7972C154.61 29.7972 155.883 30.4059 156.278 30.9276C154.522 34.7537 151.099 36.232 147.939 35.6667C145.568 38.7102 142.54 40.5363 139.643 40.7537ZM138.282 29.4928C137.273 33.7537 139.028 35.5363 141.223 35.5798C142.057 35.6233 143.154 35.058 144.208 34.0146C141.925 32.1885 140.345 29.0581 140.609 24.7972C139.467 26.0146 138.677 27.8407 138.282 29.4928ZM144.164 23.9277C143.418 26.9711 144.471 29.7102 146.183 31.3624C146.446 30.8841 146.71 30.3624 146.929 29.8407C150.221 21.5364 145.524 18.4929 144.164 23.9277Z" fill="#E8CD48"/>
<path d="M145.262 42.7972C137.669 55.971 117.127 54.5363 120.287 33.232C121.297 26.4929 119.19 25.4494 113.177 29.5798C110.85 35.9276 109.621 42.1015 110.06 46.4059H100.492C101.282 36.145 109.314 18.4929 120.419 7.14511C120.419 7.14511 124.545 7.14511 125.467 9.01467C121.385 13.2755 117.785 18.9712 115.108 24.8842C118.444 23.4929 120.902 22.9277 122.701 23.3625C127.486 21.1885 129.022 17.232 129.11 12.9712C129.197 5.62338 121.692 2.18861 112.913 4.7973C106.593 6.71033 105.013 12.7973 109.314 12.8407C106.022 18.1016 98.4727 17.4929 97.8582 12.2755C97.4632 8.79728 100.448 3.57991 110.148 1.23209C125.028 -2.46355 139.293 2.23208 137.317 14.2755C136.396 19.7538 131.085 23.7972 125.862 25.8842C126.696 27.4494 127.178 29.6668 127.486 32.6668C128.539 44.4493 136.922 47.4493 145.262 42.7972Z" fill="#E8CD48"/>
<path d="M86.831 41.2901C82.6612 41.2901 80.7739 37.551 82.3979 33.3771C83.2757 31.0727 86.4799 23.8119 88.1917 19.9858H93.9855C92.2737 24.1162 88.7184 33.0292 88.2795 33.9857C87.8405 35.0727 87.7528 36.2466 88.9379 36.2466C90.123 36.2466 91.7031 34.377 93.5466 30.3771C94.1611 30.3771 95.4778 31.1162 95.829 31.5075C94.0294 36.2901 91.0447 41.2901 86.831 41.2901ZM88.2795 15.1162C88.2795 13.4641 89.9913 12.1597 92.142 12.1597C94.2488 12.1597 95.9606 13.4641 95.9606 15.1162C95.9606 16.7249 94.2488 18.0728 92.142 18.0728C89.9913 18.0728 88.2795 16.7249 88.2795 15.1162Z" fill="#E8CD48"/>
<path d="M76.9132 41.29C72.7434 41.29 70.8122 37.5509 72.4362 33.377C73.6213 30.377 74.8942 27.5075 75.377 26.4205C75.8159 25.3336 75.7281 24.2901 74.6308 24.2901C73.5774 24.2901 71.6022 25.5944 69.4954 30.2466L65.2817 40.7248H59.1807L67.6519 19.9858H73.6213L72.7873 22.0292C74.3674 20.2031 75.9915 19.1597 77.8349 19.1597C81.1269 19.1597 83.3215 22.2031 81.3463 26.8118C80.0735 29.8118 78.8006 32.9422 78.3617 33.9857C77.9227 35.0727 77.8349 36.2466 78.9762 36.2466C80.1612 36.2466 81.8292 34.377 83.6287 30.377C84.2871 30.377 85.9112 31.2031 85.9112 31.464C84.0677 36.2466 81.083 41.29 76.9132 41.29Z" fill="#E8CD48"/>
<path d="M45.3403 41.3334C42.0045 41.0291 39.6782 35.6378 42.7945 28.2465C45.9548 20.8987 49.6417 19.2031 53.0654 19.2031C54.8649 19.2031 56.489 20.0291 57.3229 21.6378L58.0252 19.9857H63.8629C62.1511 24.1161 58.5519 33.0726 58.1569 34.0291C57.718 35.1161 57.6302 36.29 58.8153 36.29C59.9565 36.29 61.6244 34.3769 63.424 30.3769C64.0824 30.3769 65.3552 31.1161 65.7064 31.5074C63.9068 36.29 60.8782 41.3334 56.7084 41.3334C54.3382 41.3334 52.6703 40.116 52.0119 38.2465C49.9051 40.203 48.1494 41.5508 45.3403 41.3334ZM48.5444 29.203C46.701 33.5508 47.3154 35.8117 48.6761 36.0726C49.6856 36.3334 50.6513 35.9421 51.7925 34.9421C51.8803 34.4204 52.0119 33.8987 52.2314 33.3769C52.6703 32.29 53.6799 29.9856 54.7333 27.5074C55.7867 24.8117 55.26 22.9857 53.8115 22.9857C52.2753 22.9857 50.344 24.8552 48.5444 29.203Z" fill="#E8CD48"/>
<path d="M8.12759 54.5509C5.93297 52.2466 3.95781 46.8988 3.95781 44.1162C18.7935 44.9423 38.5012 30.4206 36.3065 15.7685C35.692 11.6815 32.6635 8.37718 28.6254 6.46415C24.9384 12.812 16.7305 31.1162 16.95 38.5945C14.9748 38.7684 9.75161 38.2467 8.39095 37.3771C10.3661 30.1162 18.2229 12.4207 23.051 4.85546C20.6369 4.55111 18.1351 4.72502 15.7649 5.42067C9.44437 7.29023 7.86424 13.3772 12.1657 13.4206C8.87376 18.725 1.32427 18.1163 0.709772 12.8989C0.31474 9.37718 3.29942 4.20329 12.9997 1.81199C27.8792 -1.84017 40.0374 5.11633 41.7492 17.5511C44.2072 35.2032 24.5873 52.2901 8.12759 54.5509Z" fill="#E8CD48"/>
</svg>
