<svg id="Capa_1" data-name="Capa 1" xmlns="http://www.w3.org/2000/svg" viewBox="0 0 141.73 141.73"><defs><style>.cls-1{fill:#2773b9;}.cls-2{fill:#fff;}</style></defs><title>facebook</title><path class="cls-1" d="M348.84,419.79a70.88,70.88,0,0,0,59.79,70V440.28h-18V419.79h18V404.18c0-17.76,10.58-27.57,26.77-27.57A109.28,109.28,0,0,1,451.26,378v17.44h-8.93c-8.81,0-11.55,5.47-11.55,11.07v13.29h19.65l-3.14,20.49H430.78V489.8a70.87,70.87,0,1,0-81.94-70" transform="translate(-348.84 -348.93)"/><path class="cls-2" d="M447.29,440.28l3.14-20.49H430.78V406.5c0-5.6,2.74-11.07,11.55-11.07h8.93V378a109.28,109.28,0,0,0-15.86-1.38c-16.19,0-26.77,9.81-26.77,27.57v15.61h-18v20.49h18V489.8a71.74,71.74,0,0,0,22.15,0V440.28Z" transform="translate(-348.84 -348.93)"/></svg>