<svg width="70" height="70" viewBox="0 0 70 70" fill="none" xmlns="http://www.w3.org/2000/svg">
<circle cx="35" cy="35" r="35" fill="#0A66C2"/>
<ellipse cx="35" cy="35" rx="25" ry="23" fill="white"/>
<path d="M10 13.5813C10 11.6031 11.6437 10 13.6719 10H56.3281C58.3562 10 60 11.6031 60 13.5813V56.4188C60 58.3969 58.3562 60 56.3281 60H13.6719C11.6437 60 10 58.3969 10 56.4188V13.5813ZM25.4469 51.8563V29.2781H17.9438V51.8563H25.4469ZM21.6969 26.1938C24.3125 26.1938 25.9406 24.4625 25.9406 22.2938C25.8937 20.0781 24.3156 18.3938 21.7469 18.3938C19.1781 18.3938 17.5 20.0813 17.5 22.2938C17.5 24.4625 19.1281 26.1938 21.6469 26.1938H21.6969ZM37.0344 51.8563V39.2469C37.0344 38.5719 37.0844 37.8969 37.2844 37.4156C37.825 36.0687 39.0594 34.6719 41.1344 34.6719C43.85 34.6719 44.9344 36.7406 44.9344 39.7781V51.8563H52.4375V38.9062C52.4375 31.9687 48.7375 28.7438 43.8 28.7438C39.8187 28.7438 38.0344 30.9312 37.0344 32.4719V32.55H36.9844C37.001 32.5239 37.0176 32.4979 37.0344 32.4719V29.2781H29.5344C29.6281 31.3969 29.5344 51.8563 29.5344 51.8563H37.0344Z" fill="#0A66C2"/>
</svg>
