<svg id="Capa_1" data-name="Capa 1" xmlns="http://www.w3.org/2000/svg" viewBox="0 0 387.3 243.4"><defs><style>.cls-1{fill:#46b9b0;}.cls-2{fill:#fbbb10;}</style></defs><title>LOGO</title><path class="cls-1" d="M482.4,562c241.48-10.83,141.83-179-90.33-210.69l-.06,0C125.62,270.56,304.43,570.44,482.4,562Z" transform="translate(-234.5 -320.69)"/><path class="cls-2" d="M485.62,541.63c121.82-23,119.54-118.93,97.21-176.15-38.07-97.56-226.93-16-300.61,57.71C168.68,536.84,266.13,583,485.62,541.63Z" transform="translate(-234.5 -320.69)"/><path class="cls-2" d="M433.84,561.9l.41.07Z" transform="translate(-234.5 -320.69)"/><path class="cls-2" d="M447,563.66Z" transform="translate(-234.5 -320.69)"/><path class="cls-2" d="M455.83,564.07c.24,0,.43,0,.58,0A3.85,3.85,0,0,1,455.83,564.07Z" transform="translate(-234.5 -320.69)"/></svg>