<svg width="183" height="83" viewBox="0 0 183 83" fill="none" xmlns="http://www.w3.org/2000/svg">
<path d="M60.9833 24.0608C35.0624 20.4373 14.8624 39.7733 30.4618 63.0117C57.3413 103.025 146.543 79.7893 148.976 21.5025C150.209 -8.03396 103.706 -7.10368 60.9833 24.0608Z" fill="#FFBC00"/>
<path d="M6.00419 66.6738C5.26504 65.9347 4.91153 65.0394 4.91153 63.9468C4.91153 62.4088 5.36145 60.8662 6.26128 59.3282C7.19326 57.7581 8.37773 56.2477 9.85603 54.7418C11.3297 53.2681 12.9366 51.8541 14.6353 50.5365C15.8243 42.0661 17.3944 33.2743 19.3502 24.1612C19.5109 23.6149 19.8001 23.3578 20.2822 23.3578C20.5071 23.3578 20.7321 23.4542 20.8928 23.6149C21.0535 23.7756 21.1499 24.0005 21.1499 24.2576C21.1499 24.3862 21.1177 24.579 21.0535 24.8361C20.3465 26.8561 19.5155 30.2259 18.5192 34.9776C17.5551 39.7247 16.692 44.5728 15.985 49.5448L17.0455 48.8057C17.3348 48.8057 17.4633 48.9342 17.4633 49.1592C17.4633 49.1913 17.4633 49.2234 17.4633 49.2556C17.4633 49.2877 17.4312 49.3199 17.3669 49.3841L15.8611 50.4768C15.2504 54.5536 14.9612 57.8545 14.9612 60.3933C14.9612 60.6183 14.8005 60.7468 14.5113 60.7468C14.0935 60.7468 13.8686 60.554 13.8686 60.1362C13.8686 57.7627 14.0935 54.875 14.5113 51.473C13.7079 52.1158 12.6841 53.011 11.4307 54.2001C7.54676 57.827 5.591 61.0682 5.591 63.956C5.591 64.8879 5.88023 65.6546 6.49083 66.2331C7.10144 66.8437 7.99669 67.1329 9.18575 67.1329C14.1899 67.1329 19.1987 65.1129 24.2029 61.0361C27.4763 58.4054 30.3961 55.3249 33.0268 51.8265C35.6896 48.2961 37.7739 44.5728 39.3486 40.597C40.9187 36.6487 41.7221 32.7051 41.7221 28.7889C41.7221 26.7046 41.3365 24.8407 40.5652 23.2705C39.7618 21.6683 38.6416 20.4471 37.099 19.5473C35.5932 18.6474 33.6971 18.1975 31.4521 18.1975C28.4358 18.1975 25.6445 18.5831 23.0138 19.3866C20.4153 20.19 18.0096 21.2459 15.8565 22.5635C13.6757 23.8812 11.7154 25.3549 10.0167 26.9571C7.54677 29.2342 5.65068 31.4471 4.27338 33.6324C2.89149 35.8131 2.22121 37.9021 2.22121 39.9542C2.22121 40.3399 2.02839 40.5327 1.64274 40.5648C1.22496 40.5648 1 40.372 1 39.9542C1 38.5081 1.73915 36.5523 3.245 34.0502C4.75084 31.5803 6.87189 29.046 9.59894 26.4475C12.2617 23.9776 15.4708 21.8933 19.162 20.1257C22.8853 18.3949 26.9896 17.5272 31.4521 17.5272C33.7614 17.5272 35.8181 17.945 37.581 18.7806C39.344 19.584 40.7259 20.8327 41.7221 22.5039C42.7184 24.1704 43.228 26.2593 43.228 28.7935C43.228 32.7096 42.4567 36.6854 40.8866 40.698C39.3486 44.7105 37.2275 48.4935 34.5969 52.0882C31.9341 55.683 28.9178 58.8278 25.5159 61.5549C20.3189 65.6959 14.8648 67.7802 9.18575 67.7802C7.79927 67.7665 6.74334 67.413 6.00419 66.6738Z" fill="black" stroke="black" stroke-width="0.5" stroke-miterlimit="10"/>
<path d="M67.5465 46.9096C67.6108 46.9418 67.6429 46.9739 67.675 47.0382C67.7072 47.0703 67.7072 47.1346 67.7072 47.231L67.5465 47.4238C61.5782 50.7294 56.6704 52.3959 52.8186 52.3959C51.4688 52.3959 50.3808 52.1388 49.6095 51.5925C48.8382 51.0783 48.3883 50.3391 48.2597 49.3796C48.1312 49.5082 47.7777 49.8295 47.1671 50.408C45.9137 51.5649 44.8899 52.1388 44.0865 52.1388C42.9296 52.1388 42.3236 51.4639 42.2593 50.1187C42.2593 49.4117 42.5164 48.645 43.0306 47.7773C43.5448 46.9096 44.2196 46.1751 44.9863 45.5323C45.7898 44.8896 46.5886 44.5682 47.4563 44.5682C48.1633 44.5682 48.6454 44.7611 48.93 45.1788C49.2192 45.5966 49.3799 46.0787 49.3799 46.5929C49.3799 46.7536 49.3478 46.8178 49.2514 46.85C49.155 46.8821 49.0585 46.8821 48.9943 46.8821C48.9621 46.8821 48.8979 46.8821 48.8657 46.85C48.8015 46.85 48.7693 46.8178 48.705 46.7536C48.6729 46.7214 48.6408 46.6571 48.6408 46.5607C48.6408 45.9823 48.2873 45.693 47.5802 45.6609C47.0339 45.6609 46.4233 45.9501 45.7852 46.5286C45.1746 47.1071 44.6282 47.7819 44.215 48.5165C43.7973 49.2878 43.5723 49.8984 43.5723 50.408C43.5723 51.0507 43.7651 51.4042 44.1508 51.4685C44.6328 51.4685 45.2113 51.1793 45.9458 50.6008C46.6529 50.0223 47.4517 49.2832 48.3194 48.3558C48.4158 48.163 48.6086 48.0666 48.8657 48.0666C49.3478 48.0666 49.5727 48.2594 49.5727 48.6772C49.5727 50.6972 50.6654 51.6935 52.8461 51.6935C56.5051 51.6935 61.2844 50.0912 67.1884 46.9142L67.2527 46.85C67.3858 46.8454 67.4822 46.8775 67.5465 46.9096Z" fill="black" stroke="black" stroke-width="0.5" stroke-miterlimit="10"/>
<path d="M64.8837 52.4922C64.8837 51.978 65.1086 51.0782 65.5264 49.7973C65.9442 48.5164 66.362 47.3916 66.844 46.4275C67.069 46.0419 67.3904 45.8491 67.776 45.7848C68.3866 45.7848 68.6758 46.0097 68.6758 46.4275V46.4597C68.6758 46.5561 68.6437 46.7168 68.5473 46.8453C67.6153 48.544 66.8808 50.0544 66.4308 51.3353C67.3628 50.3712 68.483 49.3795 69.8006 48.3512C71.1182 47.3549 72.1742 46.8453 72.9455 46.8453C73.6525 46.8453 74.2309 46.9739 74.6441 47.231C75.0298 47.488 75.3511 47.8094 75.6082 48.2272C75.8332 48.6128 76.026 48.9985 76.2188 49.4163C76.4117 49.9305 76.6366 50.3804 76.9259 50.766C77.2151 51.1517 77.665 51.3445 78.2756 51.3445C80.2314 51.3445 83.4405 50.6053 87.8386 49.1316L93.6784 46.8545H93.7105L93.7748 46.7902C93.9355 46.8545 94.0319 46.9188 94.064 46.983C94.0962 47.0473 94.1283 47.1116 94.1283 47.208C94.1283 47.2401 94.1283 47.2723 94.1283 47.3044C94.1283 47.3365 94.0962 47.4008 94.0319 47.4651L92.269 48.1721C85.8186 50.7385 81.1679 52.024 78.2802 52.024C76.5494 52.024 75.4246 51.6704 74.8783 50.9313C74.3641 50.16 74.0106 49.4255 73.8499 48.7184C73.7856 48.3971 73.6571 48.1078 73.5285 47.8507C73.4642 47.6258 73.2714 47.5294 72.95 47.5294C72.2109 47.5294 71.155 48.0757 69.8052 49.1959C68.4555 50.3161 67.1746 51.5694 65.9212 52.8871L65.8891 52.9513C65.857 52.9513 65.7927 53.0156 65.7284 53.0477C65.6641 53.112 65.5677 53.1442 65.4392 53.1442C65.0765 53.135 64.8837 52.91 64.8837 52.4922Z" fill="black" stroke="black" stroke-width="0.5" stroke-miterlimit="10"/>
<path d="M92.4113 49.7331C92.4113 48.4155 92.8291 47.1989 93.6968 46.0741C93.8253 45.8491 94.0503 45.7206 94.4038 45.7206C94.6609 45.7206 94.8537 45.7848 95.0144 45.8812C95.1751 45.9776 95.2715 46.1062 95.2715 46.2669L95.2394 46.4276C94.5324 47.5202 94.1788 48.6404 94.1788 49.8295C94.1788 50.4401 94.3717 50.9864 94.7252 51.4318C95.1108 51.9138 95.6893 52.1709 96.456 52.2352C97.7736 52.2352 99.3116 51.9781 101.139 51.4318C102.934 50.8854 104.701 50.2427 106.432 49.5403C108.163 48.8378 109.609 48.2226 110.798 47.6488L112.625 46.8132C112.883 46.8132 113.011 46.9096 113.011 47.1346C113.011 47.1989 113.011 47.2631 112.979 47.3274C112.947 47.3917 112.883 47.4238 112.85 47.4238C112.786 47.4881 112.143 47.7773 110.991 48.2915C109.834 48.8378 108.393 49.4806 106.689 50.183C102.264 51.9781 98.8617 52.8779 96.4881 52.8779C93.8253 52.8779 92.4435 51.8174 92.4113 49.7331ZM94.5966 43.3792C94.5966 42.3508 94.9501 41.7769 95.625 41.6162C95.9464 41.6162 96.2356 41.7448 96.4606 42.034C96.6855 42.2911 96.8141 42.5803 96.8141 42.8695C96.8141 43.2552 96.6534 43.6408 96.332 43.9943C96.0106 44.3478 95.6893 44.5407 95.3358 44.5407C94.8491 44.5315 94.5966 44.1504 94.5966 43.3792Z" fill="black" stroke="black" stroke-width="0.5" stroke-miterlimit="10"/>
<path d="M112.529 66.0632C112.69 61.2519 114.131 54.2231 116.863 44.9814C116.413 43.7923 116.188 43.0578 116.188 42.7685L116.252 42.3507C116.317 42.1258 116.542 41.933 116.927 41.7401L117.956 41.226C120.297 33.3662 122.225 27.1729 123.699 22.6141C124.535 20.1441 125.049 18.4408 125.269 17.6099C125.365 17.1921 125.623 16.9993 126.04 16.9993C126.233 16.9993 126.394 17.0635 126.555 17.1921C126.715 17.3206 126.812 17.4813 126.812 17.7384C126.812 17.8991 126.779 18.0919 126.715 18.2848C125.558 20.9154 123.249 27.5586 119.751 38.274C120.715 35.7719 122.028 32.9163 123.667 29.7072C127.969 21.2046 132.169 16.935 136.31 16.935C138.298 16.935 139.423 18.0598 139.68 20.3369C139.616 23.2247 138.427 26.0803 136.085 28.9037C133.616 31.7593 130.824 34.3257 127.744 36.5386C124.631 38.7836 121.743 40.6153 119.08 41.9926C118.695 42.8925 118.406 43.8841 118.116 44.9125C119.113 47.6717 120.522 50.3345 122.322 52.9009C126.495 58.7727 131.692 61.7247 137.917 61.7247C138.142 61.7247 138.271 61.8212 138.271 62.0461C138.271 62.2068 138.142 62.3353 137.917 62.3675C135.576 62.3675 133.395 62.014 131.435 61.2748C129.479 60.5357 127.711 59.544 126.109 58.2586C124.507 57.0052 123.093 55.5636 121.84 53.9568C119.98 51.5511 118.566 49.1776 117.602 46.7994C114.811 56.3625 113.429 62.7807 113.429 66.1137C113.429 66.3708 113.268 66.4994 112.979 66.5315C112.69 66.5453 112.529 66.3846 112.529 66.0632ZM117.506 42.7685L117.409 42.8007L117.441 42.9292L117.506 42.7685ZM131.816 31.5068C136.021 27.7514 138.234 23.9684 138.523 20.1808C138.491 19.4095 138.266 18.7668 137.848 18.2893C137.431 17.8119 136.916 17.5823 136.31 17.5823C134.13 17.5823 131.977 18.8678 129.892 21.4342C127.776 23.872 125.912 26.7276 124.245 30.001C122 34.5552 120.458 37.9893 119.659 40.2986C123.506 38.2143 127.546 35.2944 131.816 31.5068Z" fill="black" stroke="black" stroke-width="0.5" stroke-miterlimit="10"/>
<path d="M137.591 50.6972C137.174 50.3758 136.949 49.8937 136.949 49.2235C136.949 48.5164 137.174 47.7773 137.656 47.0749C138.105 46.3357 138.652 45.8858 139.194 45.693C139.676 45.693 139.933 45.9179 139.933 46.3679C139.933 46.4964 139.901 46.625 139.804 46.7214C138.679 47.6533 138.105 48.5486 138.105 49.4484C138.105 49.7055 138.17 49.9626 138.33 50.1876C138.459 50.4125 138.716 50.5089 139.037 50.5089C139.584 50.5089 140.002 50.3483 140.323 50.059C140.644 49.7698 140.966 49.4163 141.255 48.9342C140.644 48.645 140.323 48.0987 140.323 47.2998C140.323 46.5928 140.676 46.2072 141.416 46.1429C142.09 46.1429 142.412 46.5607 142.412 47.3641C142.412 47.7176 142.315 48.1033 142.155 48.4889C142.797 48.7781 143.505 48.9388 144.335 48.9388C147.609 48.8424 150.722 48.5532 153.674 48.0711C156.626 47.5891 158.646 47.1713 159.706 46.8178C159.995 46.8178 160.124 46.9463 160.124 47.1713V47.2034C160.124 47.3962 159.256 47.6855 157.558 48.039C155.859 48.3925 153.834 48.746 151.429 49.0674C149.055 49.3887 146.681 49.5816 144.335 49.6137C143.468 49.6137 142.637 49.4851 141.866 49.1959C141.191 50.5135 140.263 51.1838 139.042 51.1838C138.487 51.1746 138.009 51.014 137.591 50.6972ZM141.728 47.3917C141.728 46.9739 141.599 46.7811 141.374 46.7811C141.278 46.7811 141.246 46.9417 141.214 47.2952C141.214 47.6809 141.342 47.9701 141.599 48.1629C141.696 47.8691 141.728 47.6166 141.728 47.3917Z" fill="black" stroke="black" stroke-width="0.5" stroke-miterlimit="10"/>
<path d="M155.845 53.8053L155.877 53.6767C156.97 52.0745 158.187 50.6926 159.504 49.4392C159.215 48.9572 159.022 48.5072 158.926 48.0895C158.861 47.8002 158.829 47.511 158.829 47.2539V47.0611C158.797 46.9325 158.797 46.804 158.797 46.6754C158.797 46.2898 158.926 46.0327 159.151 45.872C159.408 45.7113 159.633 45.6149 159.89 45.6149C160.275 45.6149 160.532 45.7435 160.629 45.9684C160.725 46.2255 160.822 46.5469 160.854 46.9647C160.886 47.3503 160.95 47.7038 161.015 48.0573L163.485 45.8766C163.485 45.8766 163.517 45.8445 163.549 45.8123C163.581 45.7802 163.613 45.7802 163.677 45.7802C163.902 45.7802 164.031 45.8766 164.031 46.1016C164.031 46.1658 163.999 46.2623 163.967 46.3265C163.902 46.3587 163.838 46.4551 163.742 46.5515C163.645 46.6158 163.485 46.7443 163.292 46.9371C162.906 47.2585 162.231 47.8691 161.24 48.7643C161.786 50.3666 162.842 51.2343 164.449 51.3307C166.147 51.3307 167.947 51.1058 169.871 50.6558C171.794 50.2059 173.755 49.6596 175.71 48.9893C177.698 48.3144 179.626 47.6074 181.486 46.905L181.711 46.8407C181.775 46.8407 181.839 46.8407 181.904 46.8729C181.968 46.905 182 47.0014 182 47.13C182 47.1621 182 47.2264 182 47.2585C182 47.3228 181.968 47.3871 181.871 47.4513C181.807 47.4835 181.229 47.7084 180.076 48.1262C178.919 48.544 177.446 49.0903 175.619 49.7285C171.445 51.2343 167.759 52.0056 164.485 52.0056C162.305 52.0056 160.762 51.3629 159.867 50.0498C158.613 51.1746 157.493 52.4876 156.465 54.0302C156.433 54.0624 156.401 54.0945 156.368 54.1266C156.336 54.1588 156.304 54.1588 156.208 54.1588C155.974 54.1588 155.845 54.0302 155.845 53.8053Z" fill="black" stroke="black" stroke-width="0.5" stroke-miterlimit="10"/>
</svg>
