<svg id="Capa_1" data-name="Capa 1" xmlns="http://www.w3.org/2000/svg" viewBox="0 0 141.73 141.73"><defs><style>.cls-1{fill:#7c4997;}.cls-2{fill:#fff;}</style></defs><title>mail</title><path class="cls-1" d="M419.71,348.93a70.87,70.87,0,1,1-70.87,70.86,70.87,70.87,0,0,1,70.87-70.86" transform="translate(-348.84 -348.93)"/><path class="cls-2" d="M388.19,392.09l25.73,29.2a7.72,7.72,0,0,0,11.57,0l25.29-28.7a2.92,2.92,0,0,1,.71-.56,8.67,8.67,0,0,0-3.5-.74H391.42a8.73,8.73,0,0,0-3.36.68A1.42,1.42,0,0,1,388.19,392.09Z" transform="translate(-348.84 -348.93)"/><path class="cls-2" d="M455.39,395.39a2.6,2.6,0,0,1-.49.83l-25.29,28.7a13.2,13.2,0,0,1-19.8,0l-25.74-29.2a2.14,2.14,0,0,1-.13-.19,8.63,8.63,0,0,0-1.26,4.5v39.52a8.74,8.74,0,0,0,8.74,8.74H448a8.74,8.74,0,0,0,8.74-8.74V400A8.68,8.68,0,0,0,455.39,395.39Z" transform="translate(-348.84 -348.93)"/></svg>