<svg width="683" height="460" viewBox="0 0 683 460" fill="none" xmlns="http://www.w3.org/2000/svg">
<path d="M34.0906 358.111C79.8949 298.776 90.5301 294.742 102.428 268.106C131.456 202.878 51.131 189.239 50.0762 107.877C47.5286 -87.2018 561.699 10.1324 661.925 179.68C741.011 303.354 540.786 407.968 392.392 426.902C83.0254 466.342 -72.6919 496.479 34.0906 358.111Z" fill="#FFBC00"/>
<path d="M57.3122 328.607C54.6863 325.98 53.4303 322.8 53.4303 318.918C53.4303 313.453 55.0288 307.973 58.2257 302.51C61.5365 296.932 65.7447 291.566 70.9966 286.216C76.2322 280.98 81.941 275.957 87.9758 271.276C92.2003 241.183 97.7785 209.948 104.727 177.571C105.298 175.632 106.325 174.718 108.037 174.718C108.837 174.718 109.636 175.059 110.207 175.632C110.778 176.202 111.12 177.001 111.12 177.915C111.12 178.372 111.006 179.055 110.778 179.969C108.266 187.147 105.314 199.117 101.774 215.999C98.3493 232.863 95.2828 250.089 92.7711 267.752L96.5388 265.125C97.5663 265.125 98.0231 265.582 98.0231 266.383C98.0231 266.496 98.0231 266.609 98.0231 266.725C98.0231 266.838 97.9088 266.953 97.6805 267.182L92.3306 271.062C90.1612 285.546 89.1338 297.274 89.1338 306.293C89.1338 307.094 88.5629 307.548 87.5353 307.548C86.0512 307.548 85.2519 306.865 85.2519 305.381C85.2519 296.948 86.0512 286.688 87.5353 274.603C84.681 276.886 81.0439 280.066 76.5911 284.29C62.7925 297.176 55.8443 308.691 55.8443 318.95C55.8443 322.26 56.8717 324.985 59.0411 327.04C61.2103 329.21 64.391 330.237 68.6153 330.237C86.3936 330.237 104.188 323.062 121.967 308.578C133.596 299.23 143.97 288.288 153.314 275.859C162.775 263.317 170.181 250.089 175.774 235.962C181.352 221.936 184.208 207.927 184.208 194.013C184.208 186.607 182.836 179.987 180.096 174.406C177.243 168.715 173.263 164.376 167.783 161.179C162.433 157.984 155.698 156.384 147.721 156.384C137.005 156.384 127.088 157.756 117.742 160.609C108.511 163.464 99.9639 167.214 92.3143 171.895C84.567 176.576 77.6025 181.813 71.5675 187.504C62.7925 195.596 56.0563 203.456 51.1632 211.219C46.2538 218.967 43.8725 226.388 43.8725 233.679C43.8725 235.05 43.1874 235.733 41.8174 235.849C40.3331 235.849 39.5337 235.163 39.5337 233.679C39.5337 228.541 42.1597 221.594 47.5096 212.704C52.8594 203.928 60.3948 194.925 70.0832 185.695C79.5433 176.92 90.9443 169.514 104.058 163.236C117.286 157.085 131.867 154.003 147.721 154.003C155.926 154.003 163.232 155.488 169.496 158.456C175.759 161.309 180.669 165.747 184.208 171.684C187.746 177.604 189.557 185.025 189.557 194.028C189.557 207.942 186.817 222.066 181.239 236.321C175.774 250.576 168.24 264.017 158.892 276.788C149.434 289.559 138.718 300.732 126.631 310.419C108.168 325.131 88.7913 332.537 68.6153 332.537C63.6896 332.487 59.9382 331.231 57.3122 328.607Z" fill="black" stroke="black" stroke-width="0.5" stroke-miterlimit="10"/>
<path d="M275.953 258.389C276.182 258.505 276.295 258.618 276.41 258.846C276.523 258.962 276.523 259.188 276.523 259.532L275.953 260.218C254.749 271.961 237.315 277.881 223.63 277.881C218.835 277.881 214.968 276.966 212.228 275.028C209.488 273.199 207.89 270.575 207.433 267.164C206.976 267.621 205.721 268.764 203.551 270.818C199.098 274.93 195.461 276.966 192.608 276.966C188.497 276.966 186.345 274.57 186.116 269.791C186.116 267.28 187.028 264.555 188.856 261.473C190.682 258.389 193.08 255.78 195.803 253.497C198.658 251.214 201.496 250.071 204.578 250.071C207.092 250.071 208.802 250.757 209.814 252.241C210.841 253.725 211.414 255.438 211.414 257.264C211.414 257.834 211.299 258.063 210.957 258.178C210.613 258.291 210.271 258.291 210.043 258.291C209.93 258.291 209.701 258.291 209.586 258.178C209.357 258.178 209.244 258.063 209.016 257.834C208.9 257.721 208.787 257.493 208.787 257.151C208.787 255.094 207.531 254.067 205.02 253.954C203.079 253.954 200.909 254.981 198.641 257.036C196.473 259.092 194.532 261.488 193.063 264.098C191.579 266.838 190.78 269.008 190.78 270.818C190.78 273.101 191.466 274.357 192.834 274.586C194.547 274.586 196.604 273.558 199.213 271.504C201.725 269.447 204.563 266.823 207.644 263.528C207.988 262.842 208.674 262.5 209.586 262.5C211.299 262.5 212.097 263.186 212.097 264.67C212.097 271.846 215.98 275.384 223.728 275.384C236.727 275.384 253.707 269.693 274.68 258.407L274.908 258.178C275.383 258.161 275.725 258.276 275.953 258.389Z" fill="black" stroke="black" stroke-width="0.5" stroke-miterlimit="10"/>
<path d="M266.493 278.222C266.493 276.396 267.292 273.199 268.776 268.648C270.26 264.098 271.745 260.102 273.457 256.676C274.256 255.307 275.399 254.622 276.77 254.393C278.937 254.393 279.967 255.192 279.967 256.676V256.792C279.967 257.133 279.852 257.703 279.51 258.16C276.197 264.195 273.588 269.562 271.991 274.113C275.301 270.688 279.281 267.164 283.963 263.51C288.644 259.971 292.394 258.16 295.134 258.16C297.645 258.16 299.702 258.618 301.169 259.532C302.54 260.443 303.68 261.586 304.594 263.07C305.393 264.442 306.079 265.81 306.764 267.295C307.45 269.123 308.249 270.72 309.276 272.091C310.303 273.46 311.903 274.146 314.07 274.146C321.019 274.146 332.421 271.519 348.045 266.285L368.792 258.193H368.908L369.136 257.965C369.706 258.193 370.048 258.422 370.163 258.65C370.276 258.879 370.392 259.107 370.392 259.449C370.392 259.564 370.392 259.677 370.392 259.793C370.392 259.906 370.276 260.134 370.048 260.363L363.784 262.874C340.87 271.994 324.347 276.559 314.088 276.559C307.937 276.559 303.941 275.304 302.003 272.677C300.174 269.937 298.918 267.327 298.348 264.816C298.12 263.673 297.663 262.646 297.206 261.734C296.977 260.933 296.292 260.592 295.151 260.592C292.524 260.592 288.775 262.533 283.978 266.511C279.184 270.492 274.633 274.944 270.18 279.626L270.064 279.854C269.951 279.854 269.723 280.083 269.494 280.196C269.266 280.424 268.924 280.54 268.467 280.54C267.179 280.507 266.493 279.706 266.493 278.222Z" fill="black" stroke="black" stroke-width="0.5" stroke-miterlimit="10"/>
<path d="M364.291 268.42C364.291 263.739 365.776 259.416 368.857 255.421C369.314 254.622 370.113 254.165 371.369 254.165C372.283 254.165 372.968 254.394 373.538 254.738C374.108 255.079 374.453 255.536 374.453 256.106L374.337 256.676C371.826 260.559 370.57 264.54 370.57 268.764C370.57 270.931 371.255 272.873 372.511 274.455C373.882 276.168 375.937 277.082 378.659 277.31C383.341 277.31 388.805 276.396 395.298 274.455C401.674 272.514 407.953 270.231 414.103 267.737C420.251 265.24 425.39 263.055 429.614 261.016L436.106 258.048C437.018 258.048 437.475 258.389 437.475 259.19C437.475 259.416 437.475 259.645 437.362 259.874C437.246 260.102 437.018 260.218 436.905 260.218C436.676 260.446 434.393 261.473 430.3 263.299C426.188 265.24 421.068 267.523 415.015 270.02C399.293 276.396 387.206 279.593 378.775 279.593C369.314 279.593 364.404 275.826 364.291 268.42ZM372.054 245.847C372.054 242.193 373.31 240.156 375.708 239.583C376.851 239.583 377.878 240.041 378.677 241.068C379.475 241.982 379.933 243.009 379.933 244.036C379.933 245.408 379.362 246.776 378.22 248.032C377.077 249.288 375.937 249.973 374.681 249.973C372.951 249.941 372.054 248.587 372.054 245.847Z" fill="black" stroke="black" stroke-width="0.5" stroke-miterlimit="10"/>
<path d="M435.764 326.437C436.335 309.344 441.455 284.372 451.16 251.54C449.562 247.316 448.764 244.704 448.764 243.677L448.992 242.193C449.218 241.394 450.019 240.708 451.388 240.025L455.042 238.197C463.36 210.275 470.211 188.272 475.445 172.075C478.414 163.3 480.242 157.248 481.026 154.297C481.367 152.813 482.281 152.127 483.766 152.127C484.449 152.127 485.021 152.356 485.592 152.813C486.162 153.27 486.506 153.84 486.506 154.754C486.506 155.324 486.39 156.01 486.162 156.695C482.053 166.04 473.848 189.64 461.419 227.709C464.844 218.821 469.511 208.675 475.332 197.275C490.614 167.068 505.54 151.898 520.252 151.898C527.314 151.898 531.31 155.894 532.224 163.986C531.996 174.245 527.771 184.389 519.451 194.42C510.676 204.566 500.761 213.683 489.816 221.543C478.758 229.52 468.499 236.027 459.038 240.922C457.669 244.119 456.64 247.64 455.612 251.294C459.154 261.096 464.159 270.557 470.553 279.676C485.381 300.536 503.842 311.024 525.961 311.024C526.759 311.024 527.216 311.365 527.216 312.164C527.216 312.737 526.759 313.194 525.961 313.307C517.643 313.307 509.895 312.051 502.931 309.424C495.981 306.8 489.703 303.276 484.009 298.71C478.316 294.257 473.293 289.134 468.84 283.426C462.235 274.879 457.212 266.448 453.787 257.997C443.869 291.972 438.959 314.776 438.959 326.615C438.959 327.529 438.389 327.986 437.362 328.099C436.335 328.149 435.764 327.579 435.764 326.437ZM453.445 243.677L453.101 243.792L453.216 244.249L453.445 243.677ZM504.284 203.667C519.225 190.326 527.086 176.887 528.113 163.431C528 160.691 527.199 158.406 525.714 156.71C524.23 155.015 522.404 154.199 520.252 154.199C512.504 154.199 504.854 158.765 497.448 167.884C489.931 176.543 483.309 186.69 477.387 198.318C469.413 214.499 463.93 226.699 461.092 234.902C474.762 227.498 489.115 217.123 504.284 203.667Z" fill="black" stroke="black" stroke-width="0.5" stroke-miterlimit="10"/>
<path d="M524.8 271.846C523.316 270.706 522.517 268.993 522.517 266.609C522.517 264.098 523.316 261.473 525.029 258.977C526.629 256.353 528.57 254.753 530.494 254.067C532.206 254.067 533.121 254.868 533.121 256.466C533.121 256.923 533.005 257.38 532.664 257.721C528.668 261.031 526.629 264.213 526.629 267.41C526.629 268.322 526.857 269.236 527.427 270.035C527.884 270.836 528.798 271.178 529.939 271.178C531.88 271.178 533.364 270.608 534.507 269.578C535.647 268.551 536.79 267.295 537.817 265.582C535.647 264.555 534.507 262.614 534.507 259.776C534.507 257.264 535.763 255.895 538.387 255.667C540.786 255.667 541.928 257.151 541.928 260.004C541.928 261.26 541.584 262.631 541.014 264C543.297 265.03 545.809 265.6 548.762 265.6C560.39 265.256 571.45 264.228 581.936 262.516C592.423 260.803 599.601 259.319 603.368 258.063C604.396 258.063 604.853 258.52 604.853 259.319V259.434C604.853 260.12 601.771 261.147 595.736 262.403C589.701 263.658 582.508 264.914 573.962 266.057C565.528 267.197 557.095 267.883 548.762 267.998C545.678 267.998 542.727 267.541 539.987 266.514C537.589 271.193 534.293 273.576 529.956 273.576C527.982 273.543 526.284 272.971 524.8 271.846ZM539.497 260.102C539.497 258.618 539.04 257.932 538.242 257.932C537.897 257.932 537.784 258.505 537.671 259.761C537.671 261.129 538.126 262.159 539.04 262.842C539.382 261.8 539.497 260.901 539.497 260.102Z" fill="black" stroke="black" stroke-width="0.5" stroke-miterlimit="10"/>
<path d="M589.651 282.888L589.766 282.431C593.649 276.738 597.971 271.83 602.653 267.377C601.623 265.665 600.94 264.065 600.596 262.581C600.367 261.553 600.254 260.526 600.254 259.612V258.929C600.139 258.472 600.139 258.015 600.139 257.558C600.139 256.189 600.596 255.275 601.394 254.705C602.309 254.132 603.107 253.791 604.021 253.791C605.393 253.791 606.304 254.248 606.648 255.046C606.99 255.96 607.331 257.101 607.447 258.585C607.56 259.956 607.789 261.212 608.017 262.468L616.792 254.72C616.792 254.72 616.908 254.607 617.021 254.491C617.136 254.378 617.249 254.378 617.478 254.378C618.276 254.378 618.733 254.72 618.733 255.518C618.733 255.747 618.62 256.091 618.505 256.317C618.276 256.433 618.048 256.774 617.706 257.118C617.362 257.347 616.792 257.801 616.106 258.487C614.738 259.63 612.339 261.8 608.816 264.979C610.757 270.672 614.509 273.754 620.218 274.096C626.253 274.096 632.647 273.297 639.481 271.7C646.314 270.1 653.278 268.159 660.228 265.778C667.29 263.382 674.141 260.868 680.746 258.374L681.545 258.145C681.773 258.145 682.002 258.145 682.23 258.258C682.459 258.374 682.572 258.715 682.572 259.173C682.572 259.286 682.572 259.514 682.572 259.63C682.572 259.858 682.459 260.087 682.115 260.315C681.886 260.428 679.832 261.227 675.738 262.711C671.627 264.195 666.393 266.137 659.901 268.405C645.076 273.754 631.976 276.494 620.348 276.494C612.6 276.494 607.121 274.211 603.941 269.545C599.488 273.543 595.508 278.207 591.853 283.687C591.74 283.802 591.625 283.915 591.512 284.031C591.396 284.144 591.283 284.144 590.939 284.144C590.108 284.144 589.651 283.687 589.651 282.888Z" fill="black" stroke="black" stroke-width="0.5" stroke-miterlimit="10"/>
</svg>
