<svg id="Capa_1" data-name="Capa 1" xmlns="http://www.w3.org/2000/svg" viewBox="0 0 141.73 141.73"><defs><style>.cls-1{fill:#009d47;}.cls-2,.cls-3{fill:#fff;}.cls-3{fill-rule:evenodd;}</style></defs><title>w-app</title><path class="cls-1" d="M419.71,348.93a70.87,70.87,0,1,1-70.87,70.86,70.87,70.87,0,0,1,70.87-70.86" transform="translate(-348.84 -348.93)"/><path class="cls-2" d="M381.42,459.9l5.91-22A40.79,40.79,0,1,1,403.58,454Zm23.26-14.2,1.39.83a33.1,33.1,0,1,0-11.33-11.23l.86,1.41L392.3,449Z" transform="translate(-348.84 -348.93)"/><path class="cls-3" d="M438.07,423.85c-1.68-1-3.86-2.12-5.83-1.32-1.52.62-2.48,3-3.46,4.2a1.45,1.45,0,0,1-1.88.41,26.38,26.38,0,0,1-13.18-11.29,1.61,1.61,0,0,1,.21-2.2c.94-1.12,2.13-2.38,2.39-3.89a8.49,8.49,0,0,0-1.07-4.6c-.79-1.71-1.68-4.15-3.4-5.12a4.64,4.64,0,0,0-5.05.76,10.23,10.23,0,0,0-3.55,8.12,11.17,11.17,0,0,0,.31,2.58,21.39,21.39,0,0,0,2.48,5.7,42.89,42.89,0,0,0,2.58,3.93,39.81,39.81,0,0,0,11.2,10.4,33.66,33.66,0,0,0,7,3.32c2.74.91,5.18,1.85,8.13,1.29,3.1-.59,6.15-2.5,7.38-5.49a4.81,4.81,0,0,0,.34-2.8C442.24,425.93,439.63,424.78,438.07,423.85Z" transform="translate(-348.84 -348.93)"/></svg>