<svg id="Capa_1" data-name="Capa 1" xmlns="http://www.w3.org/2000/svg" xmlns:xlink="http://www.w3.org/1999/xlink" viewBox="0 0 141.73 141.73"><defs><style>.cls-1{fill:url(#linear-gradient);}.cls-2{fill:#fff;}</style><linearGradient id="linear-gradient" x1="4.48" y1="14.8" x2="146.19" y2="134.48" gradientUnits="userSpaceOnUse"><stop offset="0" stop-color="#ffe088"/><stop offset="0.21" stop-color="#fab744"/><stop offset="0.38" stop-color="#ea5578"/><stop offset="0.52" stop-color="#e93e8f"/><stop offset="0.74" stop-color="#7c4997"/><stop offset="1" stop-color="#4f53a0"/></linearGradient></defs><title>instagram</title><circle class="cls-1" cx="70.87" cy="70.87" r="70.87"/><path class="cls-2" d="M441.7,393a4.87,4.87,0,1,0,4.87,4.87A4.87,4.87,0,0,0,441.7,393Z" transform="translate(-348.84 -348.93)"/><path class="cls-2" d="M420.05,399.23a20.47,20.47,0,1,0,20.46,20.46A20.49,20.49,0,0,0,420.05,399.23Zm0,33.57a13.11,13.11,0,1,1,13.1-13.11A13.12,13.12,0,0,1,420.05,432.8Z" transform="translate(-348.84 -348.93)"/><path class="cls-2" d="M436.29,461.24H403.12a25,25,0,0,1-25-25V403.11a25,25,0,0,1,25-25h33.17a25,25,0,0,1,25,25v33.17A25,25,0,0,1,436.29,461.24ZM403.12,386A17.15,17.15,0,0,0,386,403.11v33.17a17.16,17.16,0,0,0,17.14,17.14h33.17a17.16,17.16,0,0,0,17.14-17.14V403.11A17.15,17.15,0,0,0,436.29,386Z" transform="translate(-348.84 -348.93)"/></svg>