<svg width="30" height="30" viewBox="0 0 30 30" fill="none" xmlns="http://www.w3.org/2000/svg">
<path d="M15 30C23.2843 30 30 23.2843 30 15C30 6.71573 23.2843 0 15 0C6.71573 0 0 6.71573 0 15C0 23.2843 6.71573 30 15 30Z" fill="#0A66C2"/>
<rect x="5" y="5" width="20" height="20" fill="white"/>
<path d="M4 5.57577C4 4.70536 4.72323 4 5.61564 4H24.3844C25.2767 4 26 4.70536 26 5.57577V24.4243C26 25.2946 25.2767 26 24.3844 26H5.61564C4.72323 26 4 25.2946 4 24.4243V5.57577ZM10.7966 22.4168V12.4824H7.49527V22.4168H10.7966ZM9.14664 11.1253C10.2975 11.1253 11.0139 10.3635 11.0139 9.40927C10.9932 8.43436 10.2989 7.69327 9.16864 7.69327C8.03836 7.69327 7.3 8.43577 7.3 9.40927C7.3 10.3635 8.01636 11.1253 9.12464 11.1253H9.14664ZM15.8951 22.4168V16.8686C15.8951 16.5716 15.9171 16.2746 16.0051 16.0629C16.243 15.4702 16.7861 14.8556 17.6991 14.8556C18.894 14.8556 19.3711 15.7659 19.3711 17.1024V22.4168H22.6725V16.7187C22.6725 13.6662 21.0445 12.2473 18.872 12.2473C17.1202 12.2473 16.3351 13.2097 15.8951 13.8876V13.922H15.8731C15.8804 13.9105 15.8877 13.8991 15.8951 13.8876V12.4824H12.5951C12.6364 13.4146 12.5951 22.4168 12.5951 22.4168H15.8951Z" fill="#0A66C2"/>
</svg>
